<svg width="29" height="29" viewBox="0 0 29 29" fill="none" xmlns="http://www.w3.org/2000/svg">
<circle cx="14.3811" cy="14.9126" r="14" fill="url(#paint0_linear)"/>
<path d="M17.5175 7.9126H11.2445C9.11423 7.9126 7.3811 9.64581 7.3811 11.7761V18.0491C7.3811 20.1795 9.11423 21.9126 11.2445 21.9126H17.5175C19.648 21.9126 21.3811 20.1794 21.3811 18.0491V11.7761C21.3812 9.64581 19.648 7.9126 17.5175 7.9126ZM20.139 18.0491C20.139 19.4945 18.9631 20.6704 17.5176 20.6704H11.2445C9.79915 20.6705 8.62325 19.4945 8.62325 18.0491V11.7761C8.62325 10.3307 9.79915 9.15475 11.2445 9.15475H17.5175C18.963 9.15475 20.139 10.3307 20.139 11.7761V18.0491H20.139Z" fill="white"/>
<path d="M14.3811 11.3054C12.392 11.3054 10.7737 12.9237 10.7737 14.9129C10.7737 16.902 12.392 18.5201 14.3811 18.5201C16.3703 18.5201 17.9886 16.902 17.9886 14.9129C17.9886 12.9237 16.3703 11.3054 14.3811 11.3054ZM14.3811 17.2779C13.077 17.2779 12.0158 16.217 12.0158 14.9128C12.0158 13.6085 13.0769 12.5475 14.3811 12.5475C15.6854 12.5475 16.7464 13.6085 16.7464 14.9128C16.7464 16.217 15.6853 17.2779 14.3811 17.2779Z" fill="white"/>
<path d="M18.1399 10.2522C17.9006 10.2522 17.6655 10.3491 17.4965 10.5188C17.3266 10.6878 17.229 10.923 17.229 11.1631C17.229 11.4025 17.3267 11.6376 17.4965 11.8074C17.6654 11.9763 17.9006 12.074 18.1399 12.074C18.3801 12.074 18.6144 11.9763 18.7842 11.8074C18.9539 11.6376 19.0508 11.4024 19.0508 11.1631C19.0508 10.923 18.9539 10.6878 18.7842 10.5188C18.6152 10.3491 18.3801 10.2522 18.1399 10.2522Z" fill="white"/>
<defs>
<linearGradient id="paint0_linear" x1="28.3811" y1="0.912596" x2="0.381105" y2="28.9126" gradientUnits="userSpaceOnUse">
<stop offset="0.0812499" stop-color="#7C39AD"/>
<stop offset="0.497917" stop-color="#FA0608"/>
<stop offset="0.925" stop-color="#F9D602"/>
</linearGradient>
</defs>
</svg>
