<svg width="31" height="31" viewBox="0 0 31 31" fill="none" xmlns="http://www.w3.org/2000/svg">
<circle cx="15.3811" cy="15.0205" r="15" fill="#1CB7EB"/>
<path d="M22.0842 12.8287C22.0943 12.9694 22.0943 13.11 22.0943 13.2506C22.0943 17.5397 18.8298 22.4817 12.8633 22.4817C11.0251 22.4817 9.31749 21.9493 7.8811 21.0252C8.14227 21.0553 8.39336 21.0654 8.66458 21.0654C10.1813 21.0654 11.5775 20.5531 12.6925 19.6792C11.2661 19.6491 10.0708 18.7149 9.65899 17.4292C9.8599 17.4593 10.0608 17.4794 10.2717 17.4794C10.563 17.4794 10.8543 17.4392 11.1255 17.3689C9.63892 17.0676 8.52393 15.7618 8.52393 14.1848V14.1446C8.95584 14.3857 9.45811 14.5363 9.99044 14.5564C9.11655 13.9738 8.54403 12.9794 8.54403 11.8544C8.54403 11.2517 8.70472 10.6993 8.98598 10.2171C10.5831 12.1859 12.9838 13.4716 15.6757 13.6122C15.6255 13.3711 15.5954 13.1201 15.5954 12.8689C15.5954 11.081 17.0418 9.62451 18.8398 9.62451C19.7739 9.62451 20.6177 10.0163 21.2103 10.6491C21.9436 10.5084 22.6467 10.2372 23.2695 9.86558C23.0284 10.619 22.5161 11.2518 21.8431 11.6535C22.496 11.5832 23.1288 11.4024 23.7114 11.1513C23.2695 11.7941 22.717 12.3667 22.0842 12.8287Z" fill="white"/>
</svg>
