<svg width="32" height="32" viewBox="0 0 32 32" fill="none" xmlns="http://www.w3.org/2000/svg">
<path d="M9.76469 5.28491L2.54938 9.24169C2.45628 9.28824 2.36318 9.33479 2.27008 9.42789L15.8162 16.7363L23.2643 12.8726" stroke="#656772" stroke-width="3" stroke-miterlimit="10" stroke-linecap="round" stroke-linejoin="round"/>
<path d="M15.8629 16.7363V30.1428C15.8629 30.1428 15.9094 30.1428 15.9094 30.0963L29.0366 23.393C29.6883 23.0672 30.1073 22.3689 30.1073 21.6241V9.6141C30.1073 9.56755 30.1073 9.56755 30.1073 9.521" stroke="#656772" stroke-width="3" stroke-miterlimit="10" stroke-linecap="round" stroke-linejoin="round"/>
<path d="M23.4504 12.826L30.1071 9.42787C30.014 9.33477 29.9209 9.28822 29.7813 9.19512L16.7937 2.44532C16.2351 2.16601 15.5369 2.16601 14.9783 2.44532L9.71806 5.33144" stroke="#656772" stroke-width="3" stroke-miterlimit="10" stroke-linecap="round" stroke-linejoin="round"/>
<path d="M2.177 9.521C2.177 9.56755 2.177 9.6141 2.177 9.66065V21.6706C2.177 22.4154 2.5494 23.0672 3.20111 23.4396L15.6766 30.1894C15.6766 30.1894 15.7232 30.1894 15.7232 30.2359" stroke="#656772" stroke-width="3" stroke-miterlimit="10" stroke-linecap="round" stroke-linejoin="round"/>
</svg>
